<?xml version="1.0" encoding="UTF-8" standalone="no"?>
<!-- Created with Inkscape (http://www.inkscape.org/) -->
<svg
   xmlns:dc="http://purl.org/dc/elements/1.1/"
   xmlns:cc="http://web.resource.org/cc/"
   xmlns:rdf="http://www.w3.org/1999/02/22-rdf-syntax-ns#"
   xmlns:svg="http://www.w3.org/2000/svg"
   xmlns="http://www.w3.org/2000/svg"
   xmlns:sodipodi="http://sodipodi.sourceforge.net/DTD/sodipodi-0.dtd"
   xmlns:inkscape="http://www.inkscape.org/namespaces/inkscape"
   width="256"
   height="256"
   id="svg2"
   sodipodi:version="0.32"
   inkscape:version="0.45.1"
   sodipodi:docbase="C:\Documents and Settings\Mizusumashi\My Documents\My Pictures\ウィキペディア\ロゴ\完全新作"
   sodipodi:docname="コピー ～ 例4.svg"
   inkscape:output_extension="org.inkscape.output.svg.inkscape"
   version="1.0">
  <defs
     id="defs4" />
  <sodipodi:namedview
     id="base"
     pagecolor="#ffffff"
     bordercolor="#666666"
     borderopacity="1.0"
     gridtolerance="10000"
     guidetolerance="10"
     objecttolerance="10"
     inkscape:pageopacity="0.0"
     inkscape:pageshadow="2"
     inkscape:zoom="1.4"
     inkscape:cx="38.394217"
     inkscape:cy="157.53453"
     inkscape:document-units="px"
     inkscape:current-layer="layer1"
     inkscape:window-width="1024"
     inkscape:window-height="708"
     inkscape:window-x="-4"
     inkscape:window-y="-4" />
  <metadata
     id="metadata7">
    <rdf:RDF>
      <cc:Work
         rdf:about="">
        <dc:format>image/svg+xml</dc:format>
        <dc:type
           rdf:resource="http://purl.org/dc/dcmitype/StillImage" />
      </cc:Work>
    </rdf:RDF>
  </metadata>
  <g
     inkscape:label="Layer 1"
     inkscape:groupmode="layer"
     id="layer1"
     transform="translate(357.35767,346.44946)">
    <g
       id="g10965"
       transform="translate(-156.04638,-31.725094)">
      <path
         sodipodi:nodetypes="ccssscsssssssscssss"
         id="path3163"
         transform="translate(-201.74968,-314.30664)"
         d="M 212.625,106.03125 C 210.423,106.00164 207.98097,106.35197 205.0625,107.0625 C 209.51832,110.65495 208.95916,113.44656 205.5625,119.5625 C 194.10128,140.1993 172.59214,165.8328 140.65625,182.125 C 137.65782,183.65464 138.37319,184.92634 141.53125,183.84375 C 158.54704,178.01074 175.63768,168.59265 190,157.96875 C 190.03709,160.2776 190.01109,163.12276 190,166.75 C 189.97193,175.93911 190.14203,185.12422 190,194.3125 C 189.88883,201.50483 189.83882,200.88173 188.78125,204.25 C 186.87568,210.31916 188.16531,210.72832 191.4375,215.9375 C 193.95681,219.94812 201.55474,221.65435 202.96875,216.53125 C 204.56958,210.73126 203.90625,203.16009 203.90625,197.03125 C 203.90624,190.63184 203.90625,180.71698 203.90625,166.96875 C 203.90624,160.73525 204.18059,157.22365 204.9375,155.71875 C 207.80224,150.02297 207.99531,148.63849 203.65625,146.75 C 210.82891,140.18071 216.73007,133.47254 220.8125,127.125 C 224.06309,122.07082 225.50051,122.65473 228.34375,120.59375 C 230.432,119.08003 230.59451,116.01957 226.5,112.5625 C 221.19256,108.08133 217.4694,106.09638 212.625,106.03125 z "
         style="fill:#000000;fill-opacity:1;fill-rule:evenodd;stroke:none;stroke-width:15.80000019;stroke-linecap:butt;stroke-linejoin:miter;stroke-miterlimit:0;stroke-dasharray:none;stroke-opacity:1" />
      <path
         style="fill:#000000;fill-opacity:1;fill-rule:evenodd;stroke:none;stroke-width:17.60000038;stroke-linecap:butt;stroke-linejoin:miter;stroke-miterlimit:4;stroke-dasharray:none;stroke-opacity:1"
         d="M -123.84443,-271.1387 C -112.51854,-268.53085 -113.37233,-267.31651 -113.37568,-243.1387 L -149.43818,-242.04495 C -153.99501,-247.81307 -170.19826,-251.85291 -174.65693,-244.79495 C -167.06307,-242.44558 -166.70077,-239.30867 -165.34443,-228.66995 C -163.21596,-211.97469 -163.3766,-205.06985 -164.03193,-200.4512 C -165.2854,-191.61708 -165.93013,-189.227 -157.87568,-182.5137 C -153.87143,-179.1762 -147.47964,-175.10049 -145.77394,-179.02052 C -141.87419,-187.98289 -145.54258,-200.11859 -145.99119,-210.24504 C -146.32112,-217.69264 -146.57394,-224.98042 -146.75068,-231.04495 C -146.75068,-231.04495 -88.840317,-232.80057 -68.175027,-233.36211 C -60.977377,-233.55769 -59.317477,-232.53853 -60.531927,-226.1387 C -69.517917,-178.78504 -96.102797,-137.68396 -139.93818,-108.88869 C -144.02875,-106.2016 -143.12805,-104.94516 -138.84443,-106.70119 C -89.343427,-126.99368 -53.098767,-163.70571 -40.813177,-215.7012 C -39.894097,-219.59093 -37.953687,-222.94574 -35.719427,-225.6387 C -28.119677,-234.79873 -27.435267,-231.75108 -41.031927,-244.29495 C -52.002977,-254.41648 -49.832847,-253.8996 -58.813177,-248.48245 C -64.161417,-245.25626 -65.449477,-244.54705 -70.698077,-244.39418 C -77.940267,-244.18324 -95.563177,-243.66995 -95.563177,-243.66995 C -95.561067,-255.875 -95.359877,-258.98059 -93.031927,-261.98245 C -88.133747,-268.29858 -89.452557,-269.17042 -102.50068,-275.60745 C -114.89598,-281.72243 -115.70768,-278.62027 -123.84443,-271.1387 z "
         id="path4123"
         sodipodi:nodetypes="ccccssssscssssssssscssc" />
    </g>
  </g>
</svg>
